<svg version="1" xmlns="http://www.w3.org/2000/svg" width="1365.333" height="1365.333" viewBox="0 0 1024.000000 1024.000000"><path d="M466.5 1.5c-105.2 9.6-202.1 50-284.6 118.6-15.9 13.3-48.5 45.9-61.8 61.8-69 82.9-109.3 179.9-118.6 285.8-1.9 21.9-1.9 66.7 0 88.6 9.3 105.9 49.6 202.9 118.6 285.8 13.3 15.9 45.9 48.5 61.8 61.8 72.3 60.2 154.9 98.4 245.8 113.6 31.5 5.2 42 6 84.3 6s52.8-.8 84.3-6c90.9-15.2 173.5-53.4 245.8-113.6 15.9-13.3 48.5-45.9 61.8-61.8 60.2-72.3 98.4-154.9 113.6-245.8 5.2-31.5 6-42 6-84.3s-.8-52.8-6-84.3c-15.2-90.9-53.4-173.5-113.6-245.8-13.3-15.9-45.9-48.5-61.8-61.8-82.9-69-179.9-109.3-285.8-118.6-20.5-1.8-69.8-1.8-89.8 0zM552 102.4c76.8 12.6 140.4 51.9 181.2 112.1 26.3 38.8 40.1 78.9 42.7 124.9 1.4 24.3-1 42-8.9 65.7-8.4 25.3-18.9 45.6-52.5 101.4-24 39.8-33.8 57.8-41 74.8-9.2 22.1-12.2 35.5-13.5 60.2-1.6 29.8-6.8 43.3-25.1 64.4L628 714v11.8c0 13.7.1 13.5-10.8 19.2-13.5 7.1-13.5 13.8-.1 20.5 7.6 3.8 10.9 7.2 10.9 11s-3.3 7.2-10.9 11c-13.4 6.7-13.4 13.4.1 20.5 8.7 4.5 10.8 6.6 10.8 10.7 0 4.3-2.8 7.2-10.8 11.2-6.7 3.4-10.2 7.1-10.2 10.8 0 2.6 2.9 5.8 10.8 12.1 5.1 4 6.1 7.2 3.7 12-.9 2-8.9 10.6-17.7 19.2-16.8 16.2-25.7 26.5-30.5 35l-2.8 5h-117l-2.8-5c-4.8-8.5-13.7-18.8-30.5-35-8.8-8.6-16.8-17.2-17.7-19.2-2.4-4.8-1.4-8 3.7-12 7.9-6.3 10.8-9.5 10.8-12.1 0-3.7-3.5-7.4-10.2-10.8-8-4-10.8-6.9-10.8-11.2 0-4.1 2.1-6.2 10.8-10.7 13.5-7.1 13.5-13.8.1-20.5-7.6-3.8-10.9-7.2-10.9-11s3.3-7.2 10.9-11c13.4-6.7 13.4-13.4-.1-20.5-10.9-5.7-10.8-5.5-10.8-19.2V714l-6.9-8.1c-18.3-21.1-23.5-34.6-25.1-64.4-2.1-41-10.5-62-53-132.5-38.1-63.3-47.5-81.8-56.3-111-5.3-17.4-6.9-29-6.9-47.5.4-77.4 37.7-149.4 102.5-197.8 35.8-26.8 81.7-45.3 125.2-50.6 5-.6 10.1-1.3 11.5-1.5 6.4-1.1 56 .3 65 1.8z"/><path d="M493.4 137c-53.3 3.8-101 22.3-140.9 54.3-10.3 8.3-28.4 26.9-36.4 37.5-27.2 36-42.1 79.3-42.1 122.7 0 35.2 12 66.9 51 135 31.4 54.8 42.6 77.4 50.9 102.1 5.7 17.3 8.1 30.4 9.1 49.9.5 9.3 1.6 19.9 2.5 23.4 2.3 9.6 7.1 18.7 12.9 24.7l5.2 5.4h212.8l5.2-5.4c10.1-10.5 14.1-22.8 15.4-48.6 2.2-41.6 12.8-68.9 55.9-144.4 36.6-64 48.1-89.8 53.1-119.3 6.7-38.9-4.5-89.6-28.3-128-36.2-58.2-101-98.4-173.7-107.7-15-1.9-38.6-2.6-52.6-1.6z"/></svg>