<svg version="1" xmlns="http://www.w3.org/2000/svg" width="1365.333" height="1365.333" viewBox="0 0 1024.000000 1024.000000"><path d="M466.5 1.5c-105.2 9.6-202.1 50-284.6 118.6-15.9 13.3-48.5 45.9-61.8 61.8-69 82.9-109.3 179.9-118.6 285.8-1.9 21.9-1.9 66.7 0 88.6 9.3 105.9 49.6 202.9 118.6 285.8 13.3 15.9 45.9 48.5 61.8 61.8 72.3 60.2 154.9 98.4 245.8 113.6 31.5 5.2 42 6 84.3 6s52.8-.8 84.3-6c90.9-15.2 173.5-53.4 245.8-113.6 15.9-13.3 48.5-45.9 61.8-61.8 60.2-72.3 98.4-154.9 113.6-245.8 5.2-31.5 6-42 6-84.3s-.8-52.8-6-84.3c-15.2-90.9-53.4-173.5-113.6-245.8-13.3-15.9-45.9-48.5-61.8-61.8-82.9-69-179.9-109.3-285.8-118.6-20.5-1.8-69.8-1.8-89.8 0zM552 102.4c55.1 9 99.7 29.8 140.5 65.6 31 27.1 57.8 67.4 70.8 106.5 9.5 28.8 12.2 45.4 12.2 76-.1 26-1.1 32.6-8.4 54.5-8.1 24.2-19.7 47-46.4 91-30.4 50.2-39.8 67.4-48.2 87.9-8.6 21-11.3 33.4-12.5 57.1-1.6 30.3-6.7 43.7-25.1 64.9L628 714v11.8c0 13.7.1 13.5-10.8 19.2-13.5 7.1-13.5 13.8-.1 20.5 14.7 7.4 14.7 14.6 0 22-13.8 6.9-13.5 13.4.8 20.9 7.5 3.9 10.1 6.6 10.1 10.4 0 4-1.8 6-9 9.8-7.9 4.1-12 8.3-12 12.1 0 2.6 4.1 7.1 11.3 12.6 4.6 3.5 5.5 6.8 3.2 11.5-.9 2-8.9 10.6-17.7 19.2-16.8 16.2-25.7 26.5-30.5 35l-2.8 5h-117l-2.8-5c-4.8-8.5-13.7-18.8-30.5-35-8.8-8.6-16.8-17.2-17.7-19.2-2.3-4.7-1.4-8 3.2-11.5 7.2-5.5 11.3-10 11.3-12.6 0-3.8-4.1-8-12-12.1-7.2-3.8-9-5.8-9-9.8 0-3.8 2.6-6.5 10.1-10.4 14.3-7.5 14.6-14 .8-20.9-14.7-7.4-14.7-14.6 0-22 13.4-6.7 13.4-13.4-.1-20.5-10.9-5.7-10.8-5.5-10.8-19.2V714l-6.9-8.1c-18.4-21.2-23.5-34.6-25.1-64.9-1.2-23.7-3.9-36.1-12.5-57.1-8.3-20.3-17.7-37.6-44.9-82.4-32.1-52.7-43.4-75.2-52-103.6-5.4-18.1-7-30.8-6.3-53.4 1.1-37.5 8.6-67.2 25.8-101.6 17.6-35.2 43.2-65.5 76.2-90.2 35.8-26.8 81.7-45.3 125.2-50.6 5-.6 10.1-1.3 11.5-1.5 6.4-1.1 56 .3 65 1.8z"/><path d="M493.4 137c-52.9 3.8-101.8 22.7-140.9 54.3-10.4 8.4-28.4 27-36.4 37.5-27.2 36-42.1 79.3-42.1 122.7 0 35.9 11.7 66.3 53.5 139.5 23.5 40.9 36.4 66 43.3 83.7 9.8 25 12.9 39.1 14.2 63.3 1.3 25.8 5.3 38.1 15.4 48.6l5.2 5.4h212.5l5.3-5.3c10.2-10.2 14.2-22.7 15.6-48.7 1-18 1.8-23.7 5.6-38 6.8-25.2 19.9-53.2 48.9-104 38.6-67.6 49.4-91.8 54.5-121.7 6.7-38.9-4.5-89.6-28.3-128-36.2-58.2-101-98.4-173.7-107.7-15-1.9-38.6-2.6-52.6-1.6z"/></svg>